<svg width="200" height="200" viewBox="0 0 24 24" fill="none" xmlns="http://www.w3.org/2000/svg">
  <defs>
    <linearGradient id="grad2" x1="0%" y1="0%" x2="100%" y2="100%">
      <stop offset="0%" style="stop-color: #00c6ff; stop-opacity: 1" />
      <stop offset="100%" style="stop-color: #0072ff; stop-opacity: 1" />
    </linearGradient>
    <filter id="glow2" x="-50%" y="-50%" width="200%" height="200%">
      <feGaussianBlur stdDeviation="2.5" result="coloredBlur"/>
      <feMerge>
        <feMergeNode in="coloredBlur"/>
        <feMergeNode in="SourceGraphic"/>
      </feMerge>
    </filter>
  </defs>
  <path d="M7 2H17V4H21V20H3V4H7V2ZM5 6V18H19V6H5ZM9 6H11V8H9V6ZM13 6H15V8H13V6ZM9 10H11V12H9V10ZM13 10H15V12H13V10ZM9 14H11V16H9V14ZM13 14H15V16H13V14Z" fill="url(#grad2)" filter="url(#glow2)"/>
</svg>
